<svg width="152" height="22" viewBox="0 0 152 22" fill="none" xmlns="http://www.w3.org/2000/svg">
<path d="M17.6921 19.0154C16.9048 19.9583 15.7918 20.6921 14.3532 21.217C12.9146 21.7322 11.3205 21.9898 9.5708 21.9898C7.73367 21.9898 6.1201 21.5913 4.7301 20.7942C3.34982 19.9874 2.28059 18.821 1.52241 17.2949C0.773951 15.7688 0.39 13.9754 0.370559 11.9147V10.4713C0.370559 8.35224 0.725349 6.51997 1.43493 4.97444C2.15423 3.4192 3.18458 2.23333 4.52598 1.41682C5.8771 0.590598 7.45664 0.177486 9.26461 0.177486C11.7822 0.177486 13.7505 0.780144 15.1697 1.98546C16.5888 3.18105 17.4296 4.92584 17.6921 7.21983H13.4346C13.2402 6.00479 12.8077 5.11539 12.137 4.55161C11.476 3.98784 10.5623 3.70595 9.39584 3.70595C7.90863 3.70595 6.77622 4.26486 5.9986 5.3827C5.22098 6.50053 4.82731 8.16269 4.81759 10.3692V11.7252C4.81759 13.9511 5.24042 15.6327 6.08608 16.77C6.93175 17.9073 8.17108 18.4759 9.80409 18.4759C11.4468 18.4759 12.6181 18.126 13.318 17.4261V13.7664H9.33752V10.5442H17.6921V19.0154ZM28.5691 10.0338L32.987 0.469095H37.7693L30.7999 13.9997V21.6982H26.3529V13.9997L19.3834 0.469095H24.1804L28.5691 10.0338ZM45.424 0.469095L50.8771 15.866L56.301 0.469095H62.0457V21.6982H57.657V15.8952L58.0944 5.87843L52.3643 21.6982H49.3608L43.6452 5.89301L44.0826 15.8952V21.6982H39.7085V0.469095H45.424ZM70.2399 14.2184V21.6982H65.8658V0.469095H74.1475C75.7416 0.469095 77.1413 0.760703 78.3466 1.34392C79.5617 1.92714 80.4948 2.75822 81.1461 3.83717C81.7973 4.9064 82.123 6.1263 82.123 7.49686C82.123 9.57699 81.4085 11.2197 79.9796 12.425C78.5605 13.6206 76.5921 14.2184 74.0746 14.2184H70.2399ZM70.2399 10.6754H74.1475C75.3042 10.6754 76.1839 10.4032 76.7865 9.85888C77.3989 9.31455 77.7051 8.53693 77.7051 7.52602C77.7051 6.48595 77.3989 5.64514 76.7865 5.0036C76.1741 4.36207 75.3285 4.03158 74.2495 4.01214H70.2399V10.6754ZM102.579 11.5648C102.579 13.6547 102.21 15.4869 101.471 17.0616C100.732 18.6363 99.6729 19.8513 98.2926 20.7067C96.9221 21.5621 95.3474 21.9898 93.5686 21.9898C91.8092 21.9898 90.2394 21.567 88.8591 20.7213C87.4788 19.8756 86.4096 18.6703 85.6514 17.1053C84.8932 15.5307 84.5093 13.7227 84.4996 11.6814V10.6316C84.4996 8.54179 84.8738 6.70465 85.6223 5.12025C86.3804 3.52612 87.4448 2.30623 88.8154 1.46056C90.1956 0.605179 91.7703 0.177486 93.5394 0.177486C95.3085 0.177486 96.8783 0.605179 98.2489 1.46056C99.6292 2.30623 100.694 3.52612 101.442 5.12025C102.2 6.70465 102.579 8.53693 102.579 10.6171V11.5648ZM98.1468 10.6025C98.1468 8.37654 97.7483 6.68521 96.9512 5.5285C96.1542 4.37179 95.0169 3.79343 93.5394 3.79343C92.0717 3.79343 90.9392 4.36693 90.1422 5.51392C89.3451 6.65119 88.9417 8.32308 88.932 10.5296V11.5648C88.932 13.7324 89.3305 15.414 90.1276 16.6096C90.9247 17.8052 92.0717 18.403 93.5686 18.403C95.0363 18.403 96.1639 17.8295 96.9512 16.6825C97.7386 15.5258 98.1371 13.8442 98.1468 11.6377V10.6025ZM110.409 21.6982H106.035V0.469095H110.409V21.6982ZM131.74 21.6982H127.366L118.851 7.73014V21.6982H114.477V0.469095H118.851L127.381 14.4663V0.469095H131.74V21.6982ZM151.103 4.01214H144.6V21.6982H140.226V4.01214H133.811V0.469095H151.103V4.01214Z" fill="#EE4D64"/>
</svg>
